<?xml version="1.0" encoding="UTF-8" standalone="no"?>
<!DOCTYPE svg PUBLIC "-//W3C//DTD SVG 1.1//EN"
 "http://www.w3.org/Graphics/SVG/1.1/DTD/svg11.dtd">
<!-- Generated by graphviz version 2.38.0 (20140413.2041)
 -->
<!-- Title: website Pages: 1 -->
<svg width="1066pt" height="1096pt"
 viewBox="0.00 0.00 1066.00 1096.00" xmlns="http://www.w3.org/2000/svg" xmlns:xlink="http://www.w3.org/1999/xlink">
<g id="graph0" class="graph" transform="scale(1 1) rotate(0) translate(4 1092)">
<title>website</title>
<polygon fill="white" stroke="none" points="-4,4 -4,-1092 1062,-1092 1062,4 -4,4"/>
<!-- internet -->
<g id="node1" class="node"><title>internet</title>
<text text-anchor="middle" x="196" y="-1013.15" font-family="HelveticaNeue" font-size="14.00">Internet</text>
</g>
<!-- home -->
<g id="node3" class="node"><title>home</title>
<ellipse fill="none" stroke="black" cx="196" cy="-822" rx="72" ry="72"/>
<text text-anchor="middle" x="196" y="-819.151" font-family="HelveticaNeue" font-size="14.00">/home</text>
</g>
<!-- internet&#45;&gt;home -->
<g id="edge2" class="edge"><title>internet&#45;&gt;home</title>
<path fill="none" stroke="black" d="M196,-997.961C196,-976.828 196,-939.314 196,-904.429"/>
<polygon fill="black" stroke="black" points="199.5,-904.193 196,-894.193 192.5,-904.193 199.5,-904.193"/>
</g>
<!-- register -->
<g id="node2" class="node"><title>register</title>
<ellipse fill="none" stroke="black" cx="138" cy="-434" rx="72" ry="72"/>
<text text-anchor="middle" x="138" y="-431.151" font-family="HelveticaNeue" font-size="14.00">/register</text>
</g>
<!-- registerMessage -->
<g id="node16" class="node"><title>registerMessage</title>
<ellipse fill="none" stroke="black" stroke-dasharray="5,2" cx="110" cy="-253" rx="72" ry="72"/>
<text text-anchor="middle" x="110" y="-250.151" font-family="HelveticaNeue" font-size="14.00">registerMessage</text>
</g>
<!-- register&#45;&gt;registerMessage -->
<g id="edge11" class="edge"><title>register&#45;&gt;registerMessage</title>
<path fill="none" stroke="black" d="M127.014,-362.768C125.563,-353.489 124.066,-343.921 122.59,-334.487"/>
<polygon fill="black" stroke="black" points="126.004,-333.662 121,-324.323 119.088,-334.744 126.004,-333.662"/>
</g>
<!-- registerEmail -->
<g id="node18" class="node"><title>registerEmail</title>
<polygon fill="none" stroke="black" points="366,-289 228,-289 228,-217 372,-217 372,-283 366,-289"/>
<polyline fill="none" stroke="black" points="366,-289 366,-283 "/>
<polyline fill="none" stroke="black" points="372,-283 366,-283 "/>
<text text-anchor="middle" x="300" y="-250.151" font-family="HelveticaNeue" font-size="14.00">registerEmail</text>
</g>
<!-- register&#45;&gt;registerEmail -->
<g id="edge9" class="edge"><title>register&#45;&gt;registerEmail</title>
<path fill="none" stroke="black" stroke-dasharray="5,2" d="M186.167,-379.779C210.172,-353.255 238.807,-321.614 261.353,-296.703"/>
<polygon fill="black" stroke="black" points="264.027,-298.964 268.142,-289.201 258.837,-294.267 264.027,-298.964"/>
</g>
<!-- home&#45;&gt;register -->
<g id="edge8" class="edge"><title>home&#45;&gt;register</title>
<path fill="none" stroke="black" d="M185.429,-750.65C175.464,-684.327 160.54,-585.01 150.102,-515.543"/>
<polygon fill="black" stroke="black" points="153.543,-514.887 148.596,-505.518 146.621,-515.927 153.543,-514.887"/>
</g>
<!-- login -->
<g id="node6" class="node"><title>login</title>
<ellipse fill="none" stroke="black" cx="277" cy="-628" rx="72" ry="72"/>
<text text-anchor="middle" x="277" y="-625.151" font-family="HelveticaNeue" font-size="14.00">/login</text>
</g>
<!-- home&#45;&gt;login -->
<g id="edge3" class="edge"><title>home&#45;&gt;login</title>
<path fill="none" stroke="black" d="M223.649,-755.461C230.648,-738.871 238.219,-720.926 245.397,-703.911"/>
<polygon fill="black" stroke="black" points="248.676,-705.143 249.338,-694.569 242.226,-702.422 248.676,-705.143"/>
</g>
<!-- profile -->
<g id="node7" class="node"><title>profile</title>
<ellipse fill="none" stroke="black" cx="767" cy="-628" rx="72" ry="72"/>
<text text-anchor="middle" x="767" y="-625.151" font-family="HelveticaNeue" font-size="14.00">/profile</text>
</g>
<!-- home&#45;&gt;profile -->
<g id="edge14" class="edge"><title>home&#45;&gt;profile</title>
<path fill="none" stroke="black" d="M245.211,-769.123C255.002,-761.472 265.757,-754.62 277,-750 338.568,-724.698 511.979,-750.226 576,-732 619.425,-719.638 664.05,-696.277 699.236,-674.925"/>
<polygon fill="black" stroke="black" points="701.29,-677.77 707.971,-669.547 697.621,-671.809 701.29,-677.77"/>
<text text-anchor="middle" x="621" y="-720.8" font-family="Webdings" font-size="14.00"></text>
</g>
<!-- finishRegistration -->
<g id="node4" class="node"><title>finishRegistration</title>
<ellipse fill="none" stroke="black" cx="419" cy="-72" rx="72" ry="72"/>
<text text-anchor="middle" x="419" y="-69.151" font-family="HelveticaNeue" font-size="14.00">/finishregister</text>
</g>
<!-- finishRegistration&#45;&gt;home -->
<g id="edge13" class="edge"><title>finishRegistration&#45;&gt;home</title>
<path fill="none" stroke="black" d="M478.409,-112.821C501.602,-131.102 526.527,-154.6 543,-181 560.293,-208.713 562,-219.334 562,-252 562,-629 562,-629 562,-629 562,-766.61 393.547,-676.833 277,-750 269.828,-754.502 262.66,-759.633 255.717,-765.029"/>
<polygon fill="black" stroke="black" points="253.301,-762.48 247.684,-771.464 257.677,-767.944 253.301,-762.48"/>
</g>
<!-- resetPassword -->
<g id="node5" class="node"><title>resetPassword</title>
<ellipse fill="none" stroke="black" cx="462" cy="-434" rx="72" ry="72"/>
<text text-anchor="middle" x="462" y="-431.151" font-family="HelveticaNeue" font-size="14.00">/resetpassword</text>
</g>
<!-- resetPasswordEmail -->
<g id="node17" class="node"><title>resetPasswordEmail</title>
<polygon fill="none" stroke="black" points="528,-289 390,-289 390,-217 534,-217 534,-283 528,-289"/>
<polyline fill="none" stroke="black" points="528,-289 528,-283 "/>
<polyline fill="none" stroke="black" points="534,-283 528,-283 "/>
<text text-anchor="middle" x="462" y="-250.151" font-family="HelveticaNeue" font-size="14.00">resetPasswordEmail</text>
</g>
<!-- resetPassword&#45;&gt;resetPasswordEmail -->
<g id="edge20" class="edge"><title>resetPassword&#45;&gt;resetPasswordEmail</title>
<path fill="none" stroke="black" stroke-dasharray="5,2" d="M462,-361.997C462,-340.914 462,-318.398 462,-299.412"/>
<polygon fill="black" stroke="black" points="465.5,-299.258 462,-289.258 458.5,-299.258 465.5,-299.258"/>
</g>
<!-- login&#45;&gt;register -->
<g id="edge4" class="edge"><title>login&#45;&gt;register</title>
<path fill="none" stroke="black" d="M235.107,-569.133C219.584,-547.691 201.867,-523.219 185.853,-501.099"/>
<polygon fill="black" stroke="black" points="188.507,-498.796 179.807,-492.748 182.836,-502.901 188.507,-498.796"/>
</g>
<!-- login&#45;&gt;resetPassword -->
<g id="edge5" class="edge"><title>login&#45;&gt;resetPassword</title>
<path fill="none" stroke="black" d="M326.577,-575.548C350.839,-550.367 380.164,-519.933 405.312,-493.833"/>
<polygon fill="black" stroke="black" points="407.868,-496.224 412.287,-486.595 402.828,-491.367 407.868,-496.224"/>
</g>
<!-- loginLocked -->
<g id="node14" class="node"><title>loginLocked</title>
<ellipse fill="none" stroke="black" cx="300" cy="-434" rx="72" ry="72"/>
<text text-anchor="middle" x="300" y="-431.151" font-family="HelveticaNeue" font-size="14.00">/loginlocked</text>
</g>
<!-- login&#45;&gt;loginLocked -->
<g id="edge6" class="edge"><title>login&#45;&gt;loginLocked</title>
<path fill="none" stroke="black" d="M285.466,-556.324C287.048,-543.117 288.713,-529.222 290.328,-515.738"/>
<polygon fill="black" stroke="black" points="293.837,-515.872 291.552,-505.526 286.887,-515.039 293.837,-515.872"/>
</g>
<!-- changePassword -->
<g id="node10" class="node"><title>changePassword</title>
<ellipse fill="none" stroke="black" cx="986" cy="-434" rx="72" ry="72"/>
<text text-anchor="middle" x="986" y="-431.151" font-family="HelveticaNeue" font-size="14.00">/changepassword</text>
</g>
<!-- profile&#45;&gt;changePassword -->
<g id="edge19" class="edge"><title>profile&#45;&gt;changePassword</title>
<path fill="none" stroke="black" d="M820.854,-579.786C852.276,-552.237 892.026,-517.388 924.653,-488.784"/>
<polygon fill="black" stroke="black" points="927.142,-491.256 932.354,-482.032 922.528,-485.992 927.142,-491.256"/>
<text text-anchor="middle" x="890" y="-526.8" font-family="Webdings" font-size="14.00"></text>
</g>
<!-- changeEmail -->
<g id="node11" class="node"><title>changeEmail</title>
<ellipse fill="none" stroke="black" cx="662" cy="-434" rx="72" ry="72"/>
<text text-anchor="middle" x="662" y="-431.151" font-family="HelveticaNeue" font-size="14.00">/changeemail</text>
</g>
<!-- profile&#45;&gt;changeEmail -->
<g id="edge15" class="edge"><title>profile&#45;&gt;changeEmail</title>
<path fill="none" stroke="black" d="M732.764,-564.398C722.638,-545.881 711.477,-525.471 701.07,-506.442"/>
<polygon fill="black" stroke="black" points="704.058,-504.612 696.189,-497.517 697.917,-507.97 704.058,-504.612"/>
<text text-anchor="middle" x="724" y="-526.8" font-family="Webdings" font-size="14.00"></text>
</g>
<!-- deleteLogin -->
<g id="node15" class="node"><title>deleteLogin</title>
<ellipse fill="none" stroke="black" stroke-dasharray="5,2" cx="824" cy="-434" rx="72" ry="72"/>
<text text-anchor="middle" x="824" y="-431.151" font-family="HelveticaNeue" font-size="14.00">deleteLogin</text>
</g>
<!-- profile&#45;&gt;deleteLogin -->
<g id="edge16" class="edge"><title>profile&#45;&gt;deleteLogin</title>
<path fill="none" stroke="black" d="M787.257,-558.767C791.64,-544.002 796.308,-528.277 800.795,-513.163"/>
<polygon fill="black" stroke="black" points="804.222,-513.919 803.713,-503.336 797.511,-511.927 804.222,-513.919"/>
<text text-anchor="middle" x="804" y="-526.8" font-family="Webdings" font-size="14.00"></text>
</g>
<!-- pendingLogin -->
<g id="node8" class="node"><title>pendingLogin</title>
<ellipse fill="none" stroke="black" cx="358" cy="-1016" rx="72" ry="72"/>
<text text-anchor="middle" x="358" y="-1013.15" font-family="HelveticaNeue" font-size="14.00">/pendinglogin</text>
</g>
<!-- anySecure -->
<g id="node9" class="node"><title>anySecure</title>
<ellipse fill="none" stroke="black" cx="358" cy="-822" rx="72" ry="72"/>
<text text-anchor="middle" x="358" y="-819.151" font-family="HelveticaNeue" font-size="14.00">/*</text>
</g>
<!-- pendingLogin&#45;&gt;anySecure -->
<g id="edge1" class="edge"><title>pendingLogin&#45;&gt;anySecure</title>
<path fill="none" stroke="black" d="M358,-943.779C358,-930.979 358,-917.549 358,-904.485"/>
<polygon fill="black" stroke="black" points="361.5,-904.106 358,-894.106 354.5,-904.106 361.5,-904.106"/>
<text text-anchor="middle" x="365" y="-914.8" font-family="Webdings" font-size="14.00"></text>
</g>
<!-- changeEmailEmail -->
<g id="node19" class="node"><title>changeEmailEmail</title>
<polygon fill="none" stroke="black" points="728,-289 590,-289 590,-217 734,-217 734,-283 728,-289"/>
<polyline fill="none" stroke="black" points="728,-289 728,-283 "/>
<polyline fill="none" stroke="black" points="734,-283 728,-283 "/>
<text text-anchor="middle" x="662" y="-250.151" font-family="HelveticaNeue" font-size="14.00">changeEmailEmail</text>
</g>
<!-- changeEmail&#45;&gt;changeEmailEmail -->
<g id="edge17" class="edge"><title>changeEmail&#45;&gt;changeEmailEmail</title>
<path fill="none" stroke="black" stroke-dasharray="5,2" d="M662,-361.997C662,-340.914 662,-318.398 662,-299.412"/>
<polygon fill="black" stroke="black" points="665.5,-299.258 662,-289.258 658.5,-299.258 665.5,-299.258"/>
</g>
<!-- finishChangeEmail -->
<g id="node12" class="node"><title>finishChangeEmail</title>
<ellipse fill="none" stroke="black" cx="662" cy="-72" rx="72" ry="72"/>
<text text-anchor="middle" x="662" y="-69.151" font-family="HelveticaNeue" font-size="14.00">/finishchangeemail</text>
</g>
<!-- finishResetPassword -->
<g id="node13" class="node"><title>finishResetPassword</title>
<ellipse fill="none" stroke="black" cx="88" cy="-72" rx="72" ry="72"/>
<text text-anchor="middle" x="88" y="-69.151" font-family="HelveticaNeue" font-size="14.00">/finishresetpassword</text>
</g>
<!-- finishResetPassword&#45;&gt;home -->
<g id="edge22" class="edge"><title>finishResetPassword&#45;&gt;home</title>
<path fill="none" stroke="black" d="M44,-129.256C22,-162.925 0,-207.675 0,-252 0,-629 0,-629 0,-629 0,-700.101 66.6331,-753.562 122.196,-785.782"/>
<polygon fill="black" stroke="black" points="120.581,-788.889 131.007,-790.77 124.029,-782.798 120.581,-788.889"/>
</g>
<!-- loginLocked&#45;&gt;registerEmail -->
<g id="edge7" class="edge"><title>loginLocked&#45;&gt;registerEmail</title>
<path fill="none" stroke="black" stroke-dasharray="5,2" d="M300,-361.997C300,-340.914 300,-318.398 300,-299.412"/>
<polygon fill="black" stroke="black" points="303.5,-299.258 300,-289.258 296.5,-299.258 303.5,-299.258"/>
</g>
<!-- registerMessage&#45;&gt;home -->
<g id="edge12" class="edge"><title>registerMessage&#45;&gt;home</title>
<path fill="none" stroke="black" d="M73.8343,-315.588C66.8806,-330.322 60.6367,-346.334 57,-362 42.5275,-424.342 43.7972,-443.377 57,-506 75.6876,-594.639 120.961,-688.722 154.795,-750.74"/>
<polygon fill="black" stroke="black" points="151.812,-752.579 159.699,-759.653 157.945,-749.205 151.812,-752.579"/>
</g>
<!-- resetPasswordEmail&#45;&gt;finishResetPassword -->
<g id="edge21" class="edge"><title>resetPasswordEmail&#45;&gt;finishResetPassword</title>
<path fill="none" stroke="black" d="M427.526,-216.78C413.902,-204.26 397.556,-190.844 381,-181 313.574,-140.91 228.764,-111.636 167.762,-93.7593"/>
<polygon fill="black" stroke="black" points="168.382,-90.2951 157.803,-90.8798 166.437,-97.0196 168.382,-90.2951"/>
</g>
<!-- registerEmail&#45;&gt;finishRegistration -->
<g id="edge10" class="edge"><title>registerEmail&#45;&gt;finishRegistration</title>
<path fill="none" stroke="black" d="M323.511,-216.635C337.812,-195.124 356.556,-166.929 373.647,-141.22"/>
<polygon fill="black" stroke="black" points="376.749,-142.876 379.371,-132.61 370.92,-139 376.749,-142.876"/>
</g>
<!-- changeEmailEmail&#45;&gt;finishChangeEmail -->
<g id="edge18" class="edge"><title>changeEmailEmail&#45;&gt;finishChangeEmail</title>
<path fill="none" stroke="black" d="M662,-216.635C662,-198.699 662,-176.117 662,-154.204"/>
<polygon fill="black" stroke="black" points="665.5,-154.202 662,-144.202 658.5,-154.202 665.5,-154.202"/>
</g>
</g>
</svg>
